<svg xmlns="http://www.w3.org/2000/svg" xmlns:xlink="http://www.w3.org/1999/xlink" width="500" zoomAndPan="magnify" viewBox="0 0 375 374.999991" height="500" preserveAspectRatio="xMidYMid meet" version="1.0"><defs><g/><clipPath id="79f5fd7633"><path d="M 83.632812 11 L 290 11 L 290 307 L 83.632812 307 Z M 83.632812 11 " clip-rule="nonzero"/></clipPath></defs><g clip-path="url(#79f5fd7633)"><path fill="#eaeaed" d="M 190.539062 306.691406 C 176.5625 306.691406 169.492188 303.660156 163.769531 286.152344 C 157.371094 266.117188 155.015625 233.289062 155.519531 223.863281 L 160.570312 224.03125 C 160.066406 233.289062 162.421875 265.109375 168.652344 284.636719 C 173.703125 300.292969 178.585938 301.640625 190.539062 301.640625 C 193.90625 301.640625 196.429688 300.628906 198.449219 298.441406 C 202.660156 294.0625 202.996094 285.816406 202.828125 282.953125 C 202.828125 281.941406 200.976562 257.867188 201.480469 242.210938 C 202.152344 222.515625 218.484375 214.769531 225.722656 214.265625 C 228.25 214.097656 243.570312 213.257812 253.5 214.265625 C 260.234375 214.941406 261.246094 211.066406 261.75 207.53125 C 261.917969 206.015625 261.917969 202.648438 261.75 200.292969 C 261.75 199.113281 261.75 198.105469 261.75 197.261719 C 261.75 194.738281 262.929688 191.203125 264.109375 187.5 L 264.277344 186.824219 C 264.277344 186.65625 263.601562 185.648438 262.929688 185.308594 L 257.375 181.773438 L 263.941406 180.597656 C 266.632812 180.089844 266.464844 177.230469 266.464844 176.890625 L 266.464844 176.554688 C 266.464844 176.554688 266.632812 171.167969 266.464844 167.800781 C 266.128906 160.058594 273.03125 157.027344 273.199219 157.027344 L 273.367188 157.027344 C 273.367188 157.027344 280.101562 154.839844 283.636719 153.492188 C 284.648438 153.15625 284.816406 152.648438 284.816406 152.480469 C 285.996094 148.105469 275.894531 135.816406 270.503906 129.25 C 267.308594 125.378906 264.949219 122.515625 263.941406 120.664062 C 261.246094 115.277344 262.089844 106.691406 263.097656 98.273438 C 263.265625 97.09375 263.265625 95.914062 263.433594 94.90625 C 264.277344 87.160156 263.097656 74.199219 260.910156 64.601562 C 258.890625 55.847656 246.597656 40.863281 241.210938 36.992188 C 226.058594 25.882812 206.699219 19.316406 185.316406 17.632812 C 154.339844 15.277344 141.714844 18.8125 117.304688 31.605469 C 93.734375 44.0625 88.515625 79.082031 88.515625 90.359375 C 88.515625 104.667969 93.398438 127.902344 93.398438 128.070312 L 88.515625 129.25 C 88.347656 128.238281 83.632812 105.175781 83.632812 90.359375 C 83.632812 83.289062 85.316406 70.832031 89.859375 58.710938 C 95.585938 43.726562 104.171875 32.953125 115.113281 27.230469 C 140.03125 14.097656 153.835938 10.058594 185.824219 12.582031 C 208.046875 14.265625 228.417969 21.335938 244.410156 32.785156 C 250.304688 36.992188 263.773438 53.15625 265.960938 63.253906 C 268.316406 73.355469 269.328125 86.992188 268.484375 95.242188 C 268.316406 96.421875 268.316406 97.429688 268.148438 98.609375 C 267.476562 105.511719 266.464844 114.097656 268.484375 118.136719 C 269.160156 119.484375 271.683594 122.515625 274.378906 125.882812 C 284.140625 137.667969 291.382812 147.261719 289.699219 153.660156 C 289.363281 155.175781 288.183594 157.027344 285.320312 158.207031 C 281.953125 159.382812 276.0625 161.402344 275.050781 161.742188 C 274.546875 161.910156 271.179688 163.761719 271.347656 167.800781 C 271.515625 171 271.347656 175.882812 271.347656 176.722656 C 271.515625 178.742188 270.84375 181.941406 268.484375 183.964844 C 269.328125 185.308594 269.664062 186.824219 269.160156 188.507812 L 268.992188 189.183594 C 268.316406 191.371094 266.800781 195.410156 266.800781 197.429688 C 266.800781 198.105469 266.800781 199.113281 266.800781 200.292969 C 266.96875 203.15625 266.96875 206.355469 266.632812 208.375 C 265.285156 218.304688 258.382812 219.820312 252.996094 219.316406 C 244.242188 218.476562 229.933594 219.148438 226.058594 219.316406 C 221.007812 219.652344 207.203125 225.882812 206.53125 242.550781 C 206.027344 257.867188 207.710938 282.449219 207.710938 282.617188 C 207.710938 283.121094 208.382812 295.074219 201.984375 301.976562 C 199.292969 305.007812 195.417969 306.691406 190.539062 306.691406 Z M 190.539062 306.691406 " fill-opacity="1" fill-rule="nonzero"/></g><path fill="#eaeaed" d="M 164.273438 226.386719 L 152.152344 226.386719 L 152.152344 216.285156 L 148.449219 216.285156 L 149.628906 175.207031 C 132.285156 169.316406 120.839844 152.988281 121.511719 134.636719 L 122.355469 105.007812 C 122.859375 89.351562 132.960938 75.207031 148.113281 68.8125 L 152.996094 0.460938 L 188.011719 0.460938 L 188.011719 71.335938 C 200.976562 79.25 208.71875 93.054688 208.214844 107.699219 L 207.371094 137.328125 C 206.699219 158.375 190.199219 175.546875 169.492188 177.398438 L 167.304688 215.949219 L 164.441406 215.949219 Z M 157.371094 221.335938 L 159.390625 221.335938 L 159.390625 210.898438 L 162.421875 210.898438 L 164.609375 172.683594 L 166.96875 172.683594 C 186.160156 172.179688 201.816406 156.691406 202.320312 137.328125 L 203.164062 107.699219 C 203.5 94.402344 196.261719 81.941406 184.308594 75.039062 L 182.960938 74.367188 L 182.960938 5.34375 L 157.707031 5.34375 L 152.996094 72.179688 L 151.480469 72.683594 C 137.335938 78.238281 127.910156 90.863281 127.40625 105.007812 L 126.5625 134.636719 C 126.058594 151.304688 136.832031 166.117188 152.996094 170.832031 L 154.847656 171.335938 L 153.667969 211.066406 L 157.203125 211.066406 Z M 157.371094 221.335938 " fill-opacity="1" fill-rule="nonzero"/><path fill="#eaeaed" d="M 84.304688 125.714844 L 95.25 123.355469 L 98.617188 143.894531 L 95.921875 144.738281 L 98.109375 157.027344 L 95.921875 157.699219 L 92.386719 145.746094 L 89.019531 146.925781 Z M 84.304688 125.714844 " fill-opacity="1" fill-rule="nonzero"/><g fill="#f46530" fill-opacity="1"><g transform="translate(56.668486, 354.704215)"><g><path d="M 2.871094 -28.285156 L 2.871094 0 L 12.980469 0 C 21.632812 0 27.738281 -5.511719 27.738281 -14.527344 C 27.738281 -22.546875 22.042969 -28.285156 12.753906 -28.285156 Z M 7.878906 -4.144531 L 7.878906 -24.140625 L 12.523438 -24.140625 C 18.628906 -24.140625 22.773438 -20.269531 22.773438 -13.9375 C 22.773438 -8.105469 18.902344 -4.144531 12.570312 -4.144531 Z M 7.878906 -4.144531 "/></g></g></g><g fill="#f46530" fill-opacity="1"><g transform="translate(87.589539, 354.704215)"><g><path d="M 28.191406 0 L 28.191406 -28.285156 L 23.046875 -28.285156 L 23.046875 -17.261719 L 8.015625 -17.261719 L 8.015625 -28.285156 L 2.871094 -28.285156 L 2.871094 0 L 8.015625 0 L 8.015625 -13.164062 L 23.046875 -13.164062 L 23.046875 0 Z M 28.191406 0 "/></g></g></g><g fill="#f46530" fill-opacity="1"><g transform="translate(120.741974, 354.704215)"><g><path d="M 7.378906 -12.753906 L 7.378906 -28.285156 L 2.1875 -28.285156 L 2.1875 -12.84375 C 2.1875 -3.644531 6.058594 0.683594 14.164062 0.683594 C 22.273438 0.683594 26.144531 -3.644531 26.144531 -12.890625 L 26.144531 -28.285156 L 20.996094 -28.285156 L 20.996094 -12.84375 C 20.996094 -6.46875 18.765625 -3.414062 14.074219 -3.414062 C 9.519531 -3.414062 7.378906 -6.421875 7.378906 -12.753906 Z M 7.378906 -12.753906 "/></g></g></g><g fill="#f46530" fill-opacity="1"><g transform="translate(151.253186, 354.704215)"><g><path d="M 2.871094 0 L 8.015625 0 L 8.015625 -20.449219 L 23.457031 0 L 28.191406 0 L 28.191406 -28.285156 L 23.046875 -28.285156 L 23.046875 -8.015625 L 7.878906 -28.285156 L 2.871094 -28.285156 Z M 2.871094 0 "/></g></g></g><g fill="#f46530" fill-opacity="1"><g transform="translate(184.405621, 354.704215)"><g/></g></g><g fill="#f46530" fill-opacity="1"><g transform="translate(198.295276, 354.704215)"><g><path d="M 2.871094 -28.285156 L 2.871094 0 L 16.898438 0 L 16.898438 -4.097656 L 8.015625 -4.097656 L 8.015625 -28.285156 Z M 2.871094 -28.285156 "/></g></g></g><g fill="#f46530" fill-opacity="1"><g transform="translate(218.150476, 354.704215)"><g><path d="M 21.222656 0 L 26.78125 0 L 16.398438 -28.285156 L 11.660156 -28.285156 L 0.820312 0 L 6.375 0 L 9.519531 -9.199219 L 18.265625 -9.199219 Z M 10.929688 -13.300781 L 14.027344 -22.453125 L 16.941406 -13.300781 Z M 10.929688 -13.300781 "/></g></g></g><g fill="#f46530" fill-opacity="1"><g transform="translate(247.933079, 354.704215)"><g><path d="M 21.222656 0 L 26.78125 0 L 16.398438 -28.285156 L 11.660156 -28.285156 L 0.820312 0 L 6.375 0 L 9.519531 -9.199219 L 18.265625 -9.199219 Z M 10.929688 -13.300781 L 14.027344 -22.453125 L 16.941406 -13.300781 Z M 10.929688 -13.300781 "/></g></g></g><g fill="#f46530" fill-opacity="1"><g transform="translate(277.715682, 354.704215)"><g><path d="M 24.277344 -27.101562 C 22.136719 -28.054688 19.628906 -28.96875 16.625 -28.96875 C 7.652344 -28.96875 1.046875 -23.546875 1.046875 -14.121094 C 1.046875 -5.054688 7.332031 0.683594 16.714844 0.683594 C 20.222656 0.683594 23.183594 -0.546875 25.414062 -1.457031 L 25.414062 -14.800781 L 16.667969 -14.847656 L 16.667969 -11.023438 L 20.816406 -11.023438 L 20.816406 -4.464844 C 19.902344 -4.097656 18.265625 -3.597656 16.078125 -3.597656 C 10.066406 -3.597656 6.195312 -8.152344 6.195312 -14.164062 C 6.195312 -21.589844 11.570312 -24.777344 16.441406 -24.777344 C 19.449219 -24.777344 21.589844 -23.957031 24.277344 -22.453125 Z M 24.277344 -27.101562 "/></g></g></g><g fill="#f46530" fill-opacity="1"><g transform="translate(307.498285, 354.704215)"><g><path d="M 2.871094 -28.285156 L 2.871094 0 L 8.015625 0 L 8.015625 -28.285156 Z M 2.871094 -28.285156 "/></g></g></g></svg>